# AST/ASF file generated using VICON BodyLanguage
# -----------------------------------------------
:version 1.10
:name VICON
:units
  mass 1.0
  length 0.45
  angle deg
:documentation
   .ast/.asf automatically generated from VICON data using
   VICON BodyBuilder and BodyLanguage model FoxedUp or BRILLIANT.MOD
:root
   order TX TY TZ RX RY RZ
   axis XYZ
   position 0 0 0  
   orientation 0 0 0 
:bonedata
  begin
     id 1 
     name lhipjoint
     direction 0.521689 -0.742065 0.420928 
     length 2.47002 
     axis 0 0 0  XYZ
  end
  begin
     id 2 
     name lfemur
     direction 0.34202 -0.939693 0  
     length 7.24654  
     axis 0 0 20  XYZ
    dof rx ry rz
    limits (-160.0 20.0)
           (-70.0 70.0)
           (-60.0 70.0)
  end
  begin
     id 3 
     name ltibia
     direction 0.34202 -0.939693 0   
     length 8.04849   
     axis 0 0 20   XYZ
    dof rx
    limits (-10.0 170.0)
  end
  begin
     id 4 
     name lfoot
     direction 0.0745411 -0.2048 0.975961   
     length 1.72367   
     axis -90 7.62852e-016 20   XYZ
    dof rx rz
    limits (-45.0 90.0)
           (-70.0 20.0)
  end
  begin
     id 5 
     name ltoes
     direction 1.53556e-011 -4.21901e-011 1   
     length 0.87311   
     axis -90 7.62852e-016 20   XYZ
    dof rx
    limits (-90.0 20.0)
  end
  begin
     id 6 
     name rhipjoint
     direction -0.52849 -0.738415 0.418857   
     length 2.48223  
     axis 0 0 0  XYZ 
  end
  begin
     id 7 
     name rfemur
     direction -0.34202 -0.939693 0   
     length 7.15571   
     axis 0 0 -20   XYZ
    dof rx ry rz
    limits (-160.0 20.0)
           (-70.0 70.0)
           (-70.0 60.0)
  end
  begin
     id 8 
     name rtibia
     direction -0.34202 -0.939693 0   
     length 7.81659   
     axis 0 0 -20   XYZ
    dof rx
    limits (-10.0 170.0)
 end
 begin
     id 9 
     name rfoot
     direction -0.0917348 -0.252039 0.963359   
     length 1.84382  
     axis -90 -7.62852e-016 -20   XYZ
    dof rx rz
    limits (-45.0 90.0)
           (-20.0 70.0)
  end
  begin
     id 10 
     name rtoes
     direction -1.53551e-011 -4.21879e-011 1   
     length 0.927771   
     axis -90 -7.62852e-016 -20   XYZ
    dof rx
    limits (-90.0 20.0)
  end
  begin
     id 11 
     name lowerback
     direction 0.00583058 0.999822 0.0179296   
     length 2.1429   
     axis 0 0 0   XYZ
    dof rx ry rz
    limits (-20.0 45.0)
           (-30.0 30.0)
           (-30.0 30.0)
  end
  begin
     id 12 
     name upperback
     direction -0.0137999 0.999752 -0.0175071   
     length 2.14252   
     axis 0 0 0   XYZ
    dof rx ry rz
    limits (-20.0 45.0)
           (-30.0 30.0)
           (-30.0 30.0)
  end
  begin
     id 13 
     name thorax
     direction -0.0158036 0.99955 -0.0254909   
     length 2.1383   
     axis 0 0 0   XYZ
    dof rx ry rz
    limits (-20.0 45.0)
           (-30.0 30.0)
           (-30.0 30.0)
  end
  begin
     id 14 
     name lowerneck
     direction -0.0101179 0.999403 -0.0330262   
     length 1.65808   
     axis 0 0 0   XYZ
    dof rx ry rz
    limits (-20.0 45.0)
           (-30.0 30.0)
           (-30.0 30.0)
  end
  begin
     id 15 
     name upperneck
     direction 0.0497734 0.995978 -0.074501   
     length 1.5897   
     axis 0 0 0   XYZ
    dof rx ry rz
    limits (-20.0 45.0)
           (-30.0 30.0)
           (-30.0 30.0)
  end
  begin
     id 16
     name head
     direction 0.0189524 0.999519 -0.0245438  
     length 1.74024  
     axis 0 0 0   XYZ
    dof rx ry rz
    limits (-20.0 45.0)
           (-30.0 30.0)
           (-30.0 30.0)
  end
  begin
     id 17 
     name lclavicle
     direction 0.945604 0.324422 0.0241537  
     length 3.59089  
     axis 0 0 0   XYZ
    dof ry rz
    limits (-20.0 10.0)
           (0.0 20.0)
  end
  begin
     id 18 
     name lhumerus
     direction 1 -4.48964e-011 -2.63524e-027   
     length 5.2391   
     axis 180 -30 -90   XYZ
    dof rx ry rz
    limits (-60.0 90.0)
           (-90.0 90.0)
           (-90.0 90.0)
  end
  begin
     id 19
     name lradius
     direction 1 -4.48969e-011 3.86978e-028   
     length 3.31467   
     axis 180 -30 -90   XYZ
    dof rx
    limits (-10.0 170.0)
  end
  begin
     id 20
     name lwrist
     direction 1 -4.48963e-011 7.20928e-028   
     length 1.65734   
     axis -5.52449e-016 90 90   XYZ
    dof ry
    limits (-180.0 0.0)
 end
  begin
     id 21 
     name lhand
     direction 1 -4.48964e-011 1.44186e-027   
     length 0.9659   
     axis -9.20027e-016 90 90   XYZ
    dof rx rz
    limits (-90.0 90.0)
           (-45.0 45.0)
  end
  begin
     id 22 
     name lfingers
     direction 1 -4.48965e-011 2.88371e-027   
     length 0.778733   
     axis -1.84005e-015 90 90   XYZ
    dof rx
    limits (0.0 90.0)
  end
  begin
     id 23
     name lthumb
     direction 0.707107 -6.34931e-011 0.707107   
     length 1.11811   
     axis -90 45 2.85299e-015   XYZ
    dof rx rz
    limits (-45.0 45.0)
           (-45.0 45.0)
  end
  begin
     id 24 
     name rclavicle
     direction -0.923762 0.370785 0.0958234   
     length 3.54196  
     axis 0 0 0   XYZ 
    dof ry rz
    limits (-10.0 20.0)
           (-20.0 0.0)
  end
  begin
     id 25 
     name rhumerus
     direction -1 -4.48966e-011 1.18702e-017  
     length 5.30252   
     axis 180 30 90   XYZ
    dof rx ry rz
    limits (-90.0 60.0)
           (-90.0 90.0)
           (-90.0 90.0)
  end
  begin
     id 26 
     name rradius
     direction -1 -4.48966e-011 4.46736e-027   
     length 3.67875   
     axis 180 30 90   XYZ
    dof rx
    limits (-10.0 170.0)
  end
  begin
     id 27 
     name rwrist
     direction -1 -4.48966e-011 7.20928e-028   
     length 1.83937   
     axis -5.52449e-016 -90 -90   XYZ
    dof ry
    limits (-180.0 0.0)
  end
  begin
     id 28
     name rhand
     direction -1 -4.48973e-011 1.44186e-027   
     length 0.594811   
     axis -9.20027e-016 -90 -90   XYZ
    dof rx rz
    limits (-90.0 90.0)
           (-45.0 45.0)
  end
  begin
     id 29
     name rfingers
     direction -1 -4.48963e-011 2.88371e-027   
     length 0.479552   
     axis -1.84005e-015 -90 -90   XYZ
    dof rx
    limits (0.0 90.0)
  end
  begin
     id 30
     name rthumb
     direction -0.707107 -6.34932e-011 0.707107   
     length 0.688544   
     axis -90 -45 -2.85299e-015   XYZ
    dof rx rz
    limits (-45.0 45.0)
           (-45.0 45.0)
  end
:hierarchy
  begin
    root lhipjoint rhipjoint lowerback
    lhipjoint lfemur
    lfemur ltibia
    ltibia lfoot
    lfoot ltoes
    rhipjoint rfemur
    rfemur rtibia
    rtibia rfoot
    rfoot rtoes
    lowerback upperback
    upperback thorax
    thorax lowerneck lclavicle rclavicle
    lowerneck upperneck
    upperneck head
    lclavicle lhumerus
    lhumerus lradius
    lradius lwrist
    lwrist lhand lthumb
    lhand lfingers
    rclavicle rhumerus
    rhumerus rradius
    rradius rwrist
    rwrist rhand rthumb
    rhand rfingers
  end

#!OML:ASF E:\acrobat2\Project_11_07_03\Capture day 1\Session 1\Acrobat.ASF
:FULLY-SPECIFIED
:DEGREES
196
root 9.63123 17.2345 29.5781 -177.176 0.00865081 -177.972
lowerback -8.70132 0.351201 1.45862
upperback -0.98026 0.419757 -0.286879
thorax 3.87418 0.266655 -1.06562
lowerneck 0.00692637 -1.69489 -2.02133
upperneck 5.35054 -2.48815 2.66546
head 1.72875 -1.28448 1.1369
rclavicle 8.32411e-016 1.59028e-015
rhumerus -35.6346 15.4258 -91.7193
rradius 21.5686
rwrist 12.3194
rhand 7.46746 -37.1911
rfingers 7.12502
rthumb 32.7205 -64.2498
lclavicle 8.32411e-016 1.59028e-015
lhumerus -32.473 -27.7696 95.7138
lradius 18.4991
lwrist 5.72934
lhand 9.4418 -15.4316
lfingers 7.12502
lthumb 34.5967 11.2177
rfemur 12.9746 23.184 6.2287
rtibia -4.26448
rfoot -40.7427 -31.3534
rtoes 15.3709
lfemur 11.622 -12.6837 2.66231
ltibia -5.44154
lfoot -38.5038 -2.83998
ltoes 52.5246
197
root 9.62094 17.2448 29.5825 -176.99 -0.166728 -179.133
lowerback -8.69935 0.360519 0.387208
upperback -0.876108 0.393714 -0.666728
thorax 3.97701 0.173367 -0.863959
lowerneck -0.0097493 -1.6417 -2.13432
upperneck 5.63229 -2.4455 2.88141
head 1.82748 -1.2664 1.22597
rclavicle 1.88845e-015 -7.15625e-015
rhumerus -34.7063 14.786 -90.9759
rradius 20.9941
rwrist 13.1488
rhand 7.0855 -37.1695
rfingers 7.12502
rthumb 32.3571 -64.3032
lclavicle 1.88845e-015 -7.15625e-015
lhumerus -31.4938 -27.8476 95.0225
lradius 17.8599
lwrist 5.25713
lhand 9.39949 -15.1715
lfingers 7.12502
lthumb 34.5566 11.487
rfemur 12.645 22.0809 4.31152
rtibia -4.22861
rfoot -39.8296 -30.7439
rtoes 15.1715
lfemur 11.3165 -12.9776 1.06307
ltibia -5.3077
lfoot -38.6855 -2.80343
ltoes 52.5426
198
root 9.62832 17.2459 29.5835 -176.958 -0.153555 -179.237
lowerback -8.56498 0.37886 0.210684
upperback -0.697389 0.447677 -0.714323
thorax 4.08752 0.202482 -0.807513
lowerneck -0.11714 -1.61622 -2.1724
upperneck 5.9557 -2.43508 2.98898
head 1.95372 -1.26359 1.2669
rclavicle 1.62755e-015 1.59028e-015
rhumerus -33.5425 13.9856 -90.1703
rradius 20.212
rwrist 14.0446
rhand 6.5215 -37.2447
rfingers 7.12502
rthumb 31.8201 -64.4865
lclavicle 1.62755e-015 1.59028e-015
lhumerus -30.4837 -28.0016 94.3494
lradius 17.2772
lwrist 4.90197
lhand 9.33682 -14.8353
lfingers 7.12502
lthumb 34.4971 11.8367
rfemur 12.5896 22.1762 4.17731
rtibia -4.24851
rfoot -40.0582 -30.6377
rtoes 15.7159
lfemur 11.282 -13.08 0.945477
ltibia -5.31898
lfoot -38.7204 -2.56926
ltoes 52.0544
199
root 9.632 17.238 29.5846 -177.132 -0.0957986 -177.984
lowerback -8.22143 0.493807 1.50265
upperback -0.46984 0.486303 -0.407555
thorax 4.14102 0.251483 -1.21239
lowerneck -0.0647993 -1.7411 -2.01958
upperneck 6.06088 -2.61139 2.90827
head 1.97919 -1.35284 1.21154
rclavicle 1.98785e-015 1.59028e-015
rhumerus -32.4701 13.1792 -89.3682
rradius 19.5307
rwrist 15.0817
rhand 6.17809 -37.2193
rfingers 7.12502
rthumb 31.493 -64.5257
lclavicle 1.98785e-015 1.59028e-015
lhumerus -29.4554 -27.7811 93.4704
lradius 16.7728
lwrist 4.1029
lhand 9.38212 -14.5302
lfingers 7.12502
lthumb 34.5401 12.132
rfemur 12.8463 22.8204 6.01418
rtibia -4.30296
rfoot -40.652 -30.949
rtoes 15.9723
lfemur 11.498 -12.843 2.61601
ltibia -5.41304
lfoot -38.4385 -2.38284
ltoes 51.1602
200
root 9.62461 17.2478 29.5851 -176.895 -0.25901 -179.005
lowerback -8.2834 0.408575 0.54189
upperback -0.366805 0.476247 -0.712138
thorax 4.2768 0.232513 -0.988346
lowerneck -0.232205 -1.87612 -1.78367
upperneck 6.57777 -2.8061 2.57427
head 2.17144 -1.45673 1.05878
rclavicle -3.00662e-015 3.97569e-015
rhumerus -31.5467 12.2811 -88.468
rradius 19.0459
rwrist 16.1153
rhand 6.15661 -37.161
rfingers 7.12502
rthumb 31.4725 -64.4713
lclavicle -3.00662e-015 3.97569e-015
lhumerus -28.4562 -27.6137 92.6301
lradius 16.2626
lwrist 3.14848
lhand 9.26184 -14.2945
lfingers 7.12502
lthumb 34.4259 12.3937
rfemur 12.5864 22.0043 4.38374
rtibia -4.44523
rfoot -39.9112 -30.6821
rtoes 15.3688
lfemur 11.2035 -13.2774 1.1761
ltibia -5.35928
lfoot -39.0783 -2.80805
ltoes 50.8855
201
root 9.62728 17.2482 29.5852 -176.804 -0.194938 -178.913
lowerback -8.11043 0.457103 0.607844
upperback -0.268658 0.539898 -0.673248
thorax 4.28345 0.268013 -0.97806
lowerneck -0.442934 -1.87219 -1.75016
upperneck 7.33836 -2.83771 2.40706
head 2.45699 -1.48592 0.996337
rclavicle 1.21756e-015 -9.93923e-015
rhumerus -30.6294 11.2132 -87.5043
rradius 18.5694
rwrist 17.1387
rhand 6.12492 -37.5877
rfingers 7.12502
rthumb 31.4423 -64.9039
lclavicle 1.21756e-015 -9.93923e-015
lhumerus -27.5714 -27.75 91.9762
lradius 15.8112
lwrist 2.67128
lhand 8.87797 -13.8721
lfingers 7.12502
lthumb 34.0614 12.898
rfemur 12.4079 21.9832 4.42298
rtibia -4.3131
rfoot -40.115 -30.1871
rtoes 16.4756
lfemur 11.1766 -13.3837 1.27875
ltibia -5.43646
lfoot -39.3148 -3.47084
ltoes 51.5513
202
root 9.62697 17.2472 29.5855 -176.746 -0.180198 -178.616
lowerback -7.8308 0.485625 0.936926
upperback -0.211158 0.551869 -0.596119
thorax 4.18902 0.282105 -1.08303
lowerneck -0.410363 -1.82732 -1.69105
upperneck 7.87776 -2.81597 2.29356
head 2.62675 -1.48916 0.949544
rclavicle 3.38555e-016 -7.95139e-015
rhumerus -29.7127 10.4966 -86.7368
rradius 18.0494
rwrist 17.7513
rhand 5.902 -38.0618
rfingers 7.12502
rthumb 31.2299 -65.4192
lclavicle 3.38555e-016 -7.95139e-015
lhumerus -26.6813 -27.7143 91.237
lradius 15.3732
lwrist 2.35833
lhand 8.4826 -13.517
lfingers 7.12502
lthumb 33.6858 13.3359
rfemur 12.3192 21.9401 4.74732
rtibia -4.25606
rfoot -40.2344 -29.8614
rtoes 17.4171
lfemur 11.1648 -13.4383 1.65898
ltibia -5.52476
lfoot -39.1237 -3.94045
ltoes 52.6587
203
root 9.6278 17.2472 29.5851 -176.668 -0.184963 -178.5
lowerback -7.55641 0.456768 1.05852
upperback -0.155247 0.507198 -0.539484
thorax 4.09243 0.263585 -1.09892
lowerneck -0.695027 -1.9773 -1.65502
upperneck 8.74735 -3.0675 2.14289
head 2.9745 -1.63256 0.883359
rclavicle -1.23153e-015 1.59028e-015
rhumerus -28.7835 10.0812 -86.0373
rradius 17.6207
rwrist 18.1632
rhand 5.80082 -38.361
rfingers 7.12502
rthumb 31.1335 -65.7369
lclavicle -1.23153e-015 1.59028e-015
lhumerus -25.7059 -27.4862 90.4102
lradius 14.8297
lwrist 1.78408
lhand 8.30956 -13.2992
lfingers 7.12502
lthumb 33.5213 13.5895
rfemur 12.25 21.9087 4.84992
rtibia -4.29269
rfoot -40.2406 -29.811
rtoes 17.613
lfemur 11.1207 -13.5947 1.77742
ltibia -5.56664
lfoot -39.1414 -4.36367
ltoes 52.9148
204
root 9.63071 17.2494 29.5839 -176.559 -0.180291 -178.737
lowerback -7.37523 0.37943 0.75882
upperback -0.0603841 0.436149 -0.560778
thorax 4.08493 0.224746 -0.960697
lowerneck -0.708486 -1.93628 -1.5637
upperneck 9.21171 -3.03387 1.87973
head 3.12696 -1.63316 0.781353
rclavicle -4.30182e-016 -7.95139e-016
rhumerus -27.8298 9.60172 -85.3046
rradius 17.2799
rwrist 18.7159
rhand 5.78527 -38.6532
rfingers 7.12502
rthumb 31.1187 -66.032
lclavicle -4.30182e-016 -7.95139e-016
lhumerus -24.7764 -27.1485 89.5371
lradius 14.4141
lwrist 0.996376
lhand 7.93072 -13.0624
lfingers 7.12502
lthumb 33.1612 13.9037
rfemur 12.13 21.8501 4.47376
rtibia -4.32093
rfoot -40.3109 -29.6355
rtoes 17.976
lfemur 11.0579 -13.8572 1.4072
ltibia -5.58136
lfoot -39.5294 -4.91578
ltoes 52.6993
205
root 9.6318 17.2523 29.5838 -176.43 -0.145185 -178.822
lowerback -7.21622 0.328629 0.624378
upperback 0.0375175 0.384771 -0.565905
thorax 4.09508 0.198687 -0.89627
lowerneck -0.707668 -1.90557 -1.51836
upperneck 9.74553 -3.03936 1.8085
head 3.30813 -1.65271 0.747826
rclavicle 5.47279e-015 -6.75868e-015
rhumerus -26.8951 9.38233 -84.7233
rradius 16.9923
rwrist 18.8801
rhand 5.51099 -38.8988
rfingers 7.12502
rthumb 30.8572 -66.3274
lclavicle 5.47279e-015 -6.75868e-015
lhumerus -23.9222 -26.8844 88.6633
lradius 14.2069
lwrist 0.35869
lhand 7.40644 -12.687
lfingers 7.12502
lthumb 32.6625 14.3838
rfemur 11.9485 21.8222 4.27416
rtibia -4.28536
rfoot -40.467 -29.2896
rtoes 18.8725
lfemur 11.0217 -14.1903 1.20396
ltibia -5.64832
lfoot -40.0226 -5.38389
ltoes 52.8038
206
root 9.63246 17.2536 29.5852 -176.26 -0.102645 -178.574
lowerback -7.0172 0.320053 0.8462
upperback 0.0995362 0.356223 -0.476075
thorax 4.0478 0.189864 -0.931494
lowerneck -0.63345 -1.86167 -1.55124
upperneck 10.2017 -3.03121 1.82306
head 3.45313 -1.66584 0.75714
rclavicle -1.98163e-015 -3.18055e-015
rhumerus -26.0264 9.12418 -84.123
rradius 16.8543
rwrist 18.9513
rhand 5.1321 -39.0747
rfingers 7.12502
rthumb 30.496 -66.571
lclavicle -1.98163e-015 -3.18055e-015
lhumerus -23.055 -27.0407 87.921
lradius 14.0174
lwrist 0.23622
lhand 6.98247 -12.2
lfingers 7.12502
lthumb 32.259 14.9536
rfemur 11.6967 21.8547 4.51001
rtibia -4.20761
rfoot -40.5272 -29.1704
rtoes 19.1244
lfemur 10.9056 -14.3156 1.50602
ltibia -5.70025
lfoot -40.062 -5.61806
ltoes 53.0696
207
root 9.63538 17.2532 29.5898 -176.044 -0.211651 -178.487
lowerback -6.70983 0.288413 0.850836
upperback 0.114002 0.315663 -0.407096
thorax 3.88862 0.169546 -0.867769
lowerneck -0.45996 -1.76653 -1.49761
upperneck 10.4374 -2.92425 1.66828
head 3.49556 -1.62823 0.701003
rclavicle 1.8077e-015 -8.34896e-015
rhumerus -25.2673 8.65192 -83.433
rradius 16.8972
rwrist 19.2804
rhand 5.03857 -39.5472
rfingers 7.12502
rthumb 30.4068 -67.06
lclavicle 1.8077e-015 -8.34896e-015
lhumerus -22.0503 -27.0404 87.1429
lradius 13.7732
lwrist -0.0294359
lhand 6.69823 -11.6113
lfingers 7.12502
lthumb 31.9884 15.597
rfemur 11.4648 21.7318 4.55757
rtibia -4.17722
rfoot -40.4161 -29.3868
rtoes 18.1709
lfemur 10.5512 -14.058 1.78649
ltibia -5.61578
lfoot -39.5237 -5.91716
ltoes 53.8164
208
root 9.64032 17.2547 29.599 -175.771 -0.479727 -178.55
lowerback -6.49822 0.262406 0.735287
upperback 0.202744 0.295146 -0.421572
thorax 3.86055 0.158835 -0.820228
lowerneck -0.595676 -1.7769 -1.40454
upperneck 10.8309 -2.96346 1.56478
head 3.65604 -1.65712 0.64618
rclavicle -8.82107e-016 -6.75868e-015
rhumerus -24.3592 8.03527 -82.7286
rradius 16.8912
rwrist 19.678
rhand 5.05441 -40.1388
rfingers 7.12502
rthumb 30.4219 -67.6488
lclavicle -8.82107e-016 -6.75868e-015
lhumerus -20.787 -26.7291 86.1648
lradius 13.5366
lwrist -0.826167
lhand 6.44571 -11.3101
lfingers 7.12502
lthumb 31.7479 15.9461
rfemur 11.2723 21.6815 4.46515
rtibia -4.20598
rfoot -40.755 -29.571
rtoes 17.7593
lfemur 9.97405 -13.7379 1.97304
ltibia -5.41664
lfoot -38.9791 -6.05797
ltoes 54.1431
209
root 9.64353 17.2576 29.6051 -175.496 -0.609374 -178.561
lowerback -6.3513 0.252731 0.716866
upperback 0.335271 0.288608 -0.436749
thorax 3.91506 0.157604 -0.826347
lowerneck -0.581331 -1.8305 -1.51278
upperneck 11.1603 -3.0842 1.71284
head 3.77732 -1.72755 0.707909
rclavicle 5.34234e-015 -1.47101e-014
rhumerus -23.2573 7.10616 -81.9917
rradius 16.6472
rwrist 20.5465
rhand 4.73708 -40.1968
rfingers 7.12502
rthumb 30.1192 -67.7624
lclavicle 5.34234e-015 -1.47101e-014
lhumerus -19.5857 -26.4358 85.1594
lradius 13.4359
lwrist -1.54561
lhand 6.23408 -11.2464
lfingers 7.12502
lthumb 31.5463 16.0495
rfemur 11.0097 21.727 4.39236
rtibia -4.20289
rfoot -41.1725 -29.5147
rtoes 18.2469
lfemur 9.54 -13.6613 2.09872
ltibia -5.31573
lfoot -38.8947 -6.05553
ltoes 53.7325
